<?xml version="1.0" standalone="no"?>
<!DOCTYPE svg PUBLIC "-//W3C//DTD SVG 20010904//EN"
 "http://www.w3.org/TR/2001/REC-SVG-20010904/DTD/svg10.dtd">
<svg version="1.0" xmlns="http://www.w3.org/2000/svg"
 width="16.000000pt" height="16.000000pt" viewBox="0 0 16.000000 16.000000"
 preserveAspectRatio="xMidYMid meet">
<metadata>
Created by potrace 1.11, written by Peter Selinger 2001-2013
</metadata>
<g transform="translate(0.000000,16.000000) scale(0.002667,-0.002667)"
fill="#000000" stroke="none">
<path d="M2818 5925 c-2 -2 -42 -6 -90 -10 -47 -3 -97 -8 -110 -10 -12 -2 -41
-6 -63 -10 -96 -14 -114 -18 -195 -37 -47 -11 -96 -22 -110 -24 -40 -8 -309
-99 -380 -129 -461 -195 -871 -505 -1174 -890 -67 -85 -166 -229 -229 -332
-38 -63 -167 -315 -167 -327 0 -4 -9 -26 -19 -49 -55 -121 -149 -431 -166
-547 -3 -20 -8 -47 -10 -60 -3 -14 -8 -45 -11 -70 -3 -25 -7 -56 -10 -70 -26
-155 -26 -550 1 -738 2 -18 7 -52 10 -75 46 -338 185 -726 374 -1045 96 -162
232 -349 319 -438 13 -13 21 -24 18 -24 -6 0 234 -238 262 -260 10 -8 37 -29
58 -47 202 -165 329 -248 569 -369 200 -101 482 -201 676 -239 101 -20 192
-36 234 -40 28 -3 60 -7 71 -9 104 -21 526 -22 632 -1 12 2 52 7 89 10 97 10
238 39 384 79 1078 297 1911 1209 2105 2301 14 81 17 104 33 230 14 107 11
506 -4 633 -39 321 -132 639 -272 932 -62 129 -160 299 -210 366 -13 17 -23
36 -23 42 0 6 -3 12 -7 14 -5 2 -28 30 -53 63 -41 55 -51 68 -90 115 -147 175
-289 314 -444 435 -21 17 -45 36 -52 43 -7 6 -17 12 -22 12 -6 0 -12 4 -14 8
-1 5 -43 36 -93 69 -419 279 -850 434 -1360 489 -57 6 -452 14 -457 9z"/>
</g>
</svg>
