<?xml version="1.0" encoding="UTF-8" standalone="no"?>
<svg
   xmlns:dc="http://purl.org/dc/elements/1.1/"
   xmlns:cc="http://creativecommons.org/ns#"
   xmlns:rdf="http://www.w3.org/1999/02/22-rdf-syntax-ns#"
   xmlns:svg="http://www.w3.org/2000/svg"
   xmlns="http://www.w3.org/2000/svg"
   xml:space="preserve"
   viewBox="0 0 31.875 31.875"
   height="32"
   width="32"
   y="0px"
   x="0px"
   id="Capa_1"
   version="1.1"><metadata
     id="metadata42"><rdf:RDF><cc:Work
         rdf:about=""><dc:format>image/svg+xml</dc:format><dc:type
           rdf:resource="http://purl.org/dc/dcmitype/StillImage" /><dc:title></dc:title></cc:Work></rdf:RDF></metadata><defs
     id="defs40" /><g
     transform="translate(0,-478.125)"
     id="g3"><g
       id="add-circle"><path
         style="fill:#689f38;fill-opacity:1"
         id="path6"
         d="M 15.9375,478.125 C 7.1718745,478.125 0,485.29688 0,494.0625 0,502.82813 7.1718745,510 15.9375,510 c 8.765624,0 15.937498,-7.17187 15.937498,-15.9375 0,-8.76562 -7.171874,-15.9375 -15.937498,-15.9375 z m 7.968749,17.53125 -6.375,0 0,6.375 -3.1875,0 0,-6.375 -6.3749994,0 0,-3.1875 6.3749994,0 0,-6.375 3.1875,0 0,6.375 6.375,0 0,3.1875 z" /></g></g><g
     transform="translate(0,-478.125)"
     id="g8" /><g
     transform="translate(0,-478.125)"
     id="g10" /><g
     transform="translate(0,-478.125)"
     id="g12" /><g
     transform="translate(0,-478.125)"
     id="g14" /><g
     transform="translate(0,-478.125)"
     id="g16" /><g
     transform="translate(0,-478.125)"
     id="g18" /><g
     transform="translate(0,-478.125)"
     id="g20" /><g
     transform="translate(0,-478.125)"
     id="g22" /><g
     transform="translate(0,-478.125)"
     id="g24" /><g
     transform="translate(0,-478.125)"
     id="g26" /><g
     transform="translate(0,-478.125)"
     id="g28" /><g
     transform="translate(0,-478.125)"
     id="g30" /><g
     transform="translate(0,-478.125)"
     id="g32" /><g
     transform="translate(0,-478.125)"
     id="g34" /><g
     transform="translate(0,-478.125)"
     id="g36" /></svg>